<svg xmlns="http://www.w3.org/2000/svg" viewBox="0 0 512 512">
  <defs>
    <linearGradient id="bg" x1="0" y1="0" x2="0" y2="1">
      <stop offset="0%" stop-color="#1c150b"/>
      <stop offset="100%" stop-color="#080604"/>
    </linearGradient>
    <linearGradient id="brass" x1="0" y1="0" x2="0" y2="1">
      <stop offset="0%" stop-color="#f5d896"/>
      <stop offset="40%" stop-color="#d9b66e"/>
      <stop offset="100%" stop-color="#6f5421"/>
    </linearGradient>
    <radialGradient id="key" cx="50%" cy="30%">
      <stop offset="0%" stop-color="#fff5c4"/>
      <stop offset="15%" stop-color="#f5d896"/>
      <stop offset="40%" stop-color="#d9b66e"/>
      <stop offset="70%" stop-color="#a07d36"/>
      <stop offset="100%" stop-color="#3a2a0e"/>
    </radialGradient>
    <filter id="glow">
      <feGaussianBlur stdDeviation="6" result="blur"/>
      <feMerge><feMergeNode in="blur"/><feMergeNode in="SourceGraphic"/></feMerge>
    </filter>
  </defs>
  <rect width="512" height="512" rx="96" fill="url(#bg)"/>
  <rect x="8" y="8" width="496" height="496" rx="90" fill="none" stroke="#d9b66e" stroke-opacity=".2" stroke-width="2"/>
  <circle cx="256" cy="280" r="72" fill="url(#key)" stroke="#1a140b" stroke-width="4"/>
  <circle cx="256" cy="280" r="16" fill="#3a2a0e"/>
  <g fill="none" stroke="url(#brass)" stroke-width="5" stroke-linecap="round" filter="url(#glow)">
    <path d="M200 280a56 56 0 0 1 112 0"/>
    <path d="M168 280a88 88 0 0 1 176 0"/>
    <path d="M136 280a120 120 0 0 1 240 0"/>
  </g>
  <line x1="256" y1="296" x2="256" y2="380" stroke="url(#brass)" stroke-width="5" stroke-linecap="round"/>
  <g fill="#b9e8a7" filter="url(#glow)">
    <circle cx="160" cy="420" r="10"/>
    <rect x="186" y="414" width="32" height="12" rx="3"/>
    <circle cx="242" cy="420" r="10"/>
    <circle cx="270" cy="420" r="10"/>
    <rect x="294" y="414" width="56" height="12" rx="3"/>
  </g>
</svg>
